<svg width="155" height="22" viewBox="0 0 155 22" fill="none" xmlns="http://www.w3.org/2000/svg">
<path d="M6.66399 20.986V3.41602H-6.83218e-06V0.266023H17.08V3.41602H10.416V20.986H6.66399ZM18.1048 20.986V4.32602H30.3968V7.08402H21.7448V18.228H30.5228V20.986H18.1048ZM20.3168 13.874V11.116H29.1928V13.874H20.3168ZM43.8506 20.986L39.4826 14.882L37.2986 12.362L31.3906 4.32602H35.5486L39.5246 9.77202L41.6806 12.32L47.9806 20.986H43.8506ZM30.9986 20.986L37.2986 12.362L39.5246 9.77202L43.4726 4.32602H47.5046L41.6806 12.32L39.4826 14.882L35.1146 20.986H30.9986ZM52.6319 20.986V7.26602H47.0179V4.32602H61.9699V7.26602H56.3559V20.986H52.6319ZM73.7397 21.252C72.1251 21.252 70.6784 21.056 69.3997 20.664C68.1304 20.2627 67.0524 19.642 66.1657 18.802C65.2791 17.9527 64.6024 16.856 64.1357 15.512C63.6691 14.168 63.4357 12.5534 63.4357 10.668C63.4357 8.25069 63.8464 6.25336 64.6677 4.67602C65.4984 3.09869 66.6977 1.92736 68.2657 1.16202C69.8337 0.387356 71.7331 2.19345e-05 73.9637 2.19345e-05C74.7571 2.19345e-05 75.5224 0.0466886 76.2597 0.140022C76.9971 0.224022 77.7204 0.354689 78.4297 0.532022V3.65402C77.7484 3.47669 77.0577 3.34602 76.3577 3.26202C75.6671 3.17802 74.9577 3.13602 74.2297 3.13602C72.7084 3.13602 71.4391 3.38336 70.4217 3.87802C69.4044 4.37269 68.6391 5.17069 68.1257 6.27202C67.6217 7.36402 67.3697 8.81069 67.3697 10.612C67.3697 12.4694 67.6264 13.9487 68.1397 15.05C68.6531 16.142 69.4044 16.926 70.3937 17.402C71.3924 17.878 72.6197 18.116 74.0757 18.116C74.8037 18.116 75.5224 18.06 76.2317 17.948C76.9411 17.836 77.6737 17.6634 78.4297 17.43V20.552C77.7577 20.7667 77.0204 20.9347 76.2177 21.056C75.4151 21.1867 74.5891 21.252 73.7397 21.252ZM81.1322 20.986V4.32602H84.8562V20.986H81.1322ZM89.0072 20.986V4.62002C89.8285 4.47069 90.6732 4.34936 91.5412 4.25602C92.4092 4.16269 93.3238 4.11602 94.2852 4.11602C96.8892 4.11602 98.8492 4.60136 100.165 5.57202C101.481 6.53336 102.139 8.05469 102.139 10.136C102.139 12.096 101.5 13.5847 100.221 14.602C98.9425 15.6194 97.0338 16.128 94.4952 16.128C94.1778 16.128 93.8698 16.1234 93.5712 16.114C93.2818 16.1047 93.0018 16.0907 92.7312 16.072V20.986H89.0072ZM94.5372 13.51C95.9185 13.51 96.9265 13.244 97.5612 12.712C98.2052 12.1707 98.5272 11.3167 98.5272 10.15C98.5272 8.96469 98.2098 8.10136 97.5752 7.56002C96.9405 7.01869 95.9605 6.74802 94.6352 6.74802C94.2805 6.74802 93.9445 6.76202 93.6272 6.79002C93.3192 6.80869 93.0205 6.84136 92.7312 6.88802V13.398C93.0298 13.426 93.3192 13.454 93.5992 13.482C93.8885 13.5007 94.2012 13.51 94.5372 13.51ZM105.304 20.986V4.32602H109.028V10.906H116.476V4.32602H120.2V20.986H116.476V14.014H109.028V20.986H105.304ZM124.335 20.986V4.32602H136.627V7.08402H127.975V18.228H136.753V20.986H124.335ZM126.547 13.874V11.116H135.423V13.874H126.547ZM139.839 20.986V4.69002C140.623 4.53136 141.482 4.39602 142.415 4.28402C143.349 4.17202 144.305 4.11602 145.285 4.11602C147.824 4.11602 149.728 4.55469 150.997 5.43202C152.267 6.30936 152.901 7.65336 152.901 9.46402C152.901 10.64 152.598 11.6247 151.991 12.418C151.394 13.2114 150.535 13.8087 149.415 14.21C148.295 14.6114 146.965 14.812 145.425 14.812C145.089 14.812 144.763 14.8074 144.445 14.798C144.128 14.7887 143.811 14.77 143.493 14.742V20.986H139.839ZM150.241 20.986L144.585 13.286H148.589L154.357 20.986H150.241ZM145.439 12.222C146.821 12.222 147.824 11.998 148.449 11.55C149.084 11.102 149.401 10.4067 149.401 9.46402C149.401 8.48402 149.098 7.77936 148.491 7.35002C147.885 6.91136 146.933 6.69202 145.635 6.69202C145.234 6.69202 144.861 6.71069 144.515 6.74802C144.17 6.77602 143.829 6.81802 143.493 6.87402V12.138C143.867 12.166 144.189 12.1894 144.459 12.208C144.73 12.2174 145.057 12.222 145.439 12.222Z" fill="white"/>
</svg>
